<?xml version="1.0" encoding="utf-8"?>
<!-- Generator: Adobe Illustrator 20.0.0, SVG Export Plug-In . SVG Version: 6.00 Build 0)  -->
<svg version="1.1" id="Layer_1" xmlns="http://www.w3.org/2000/svg" xmlns:xlink="http://www.w3.org/1999/xlink" x="0px" y="0px"
	 viewBox="0 0 343 40" style="enable-background:new 0 0 343 40;" xml:space="preserve">
<style type="text/css">
	.st0{fill:#FFFFFF;}
</style>
<title>Page 1</title>
<desc>Created with Sketch.</desc>
<g id="Page-1_1_">
	<g id="Home">
		<g id="Page-1">
			<g id="Group-52">
				<path id="Fill-2" class="st0" d="M270.6,10.8l-2.4-0.6l-3.7,11.9c-0.6,2-0.8,3.4-0.8,3.4s-0.2-1.7-0.9-3.5l-3.6-11.4h-2.9
					l-3.5,11.5c-0.4,1.3-0.8,3.4-0.8,3.4s-0.2-1.5-0.8-3.4l-3.5-11.8L245,11l5.5,17h2.9l3.5-11.9c0.4-1.2,0.6-3,0.6-3
					s0.3,1.8,0.6,2.9l3.8,12h2.9L270.6,10.8L270.6,10.8z"/>
				<path id="Fill-4" class="st0" d="M279.7,20h-5.5c0.2-1.5,1.3-3.1,3-3.1C279,16.9,279.8,18.3,279.7,20 M282.1,21.1
					c0-3.4-1.2-6-4.8-6c-3.9,0-6.1,3.3-6.1,6.7c0,4.8,2.3,6.5,5.6,6.5c1.9,0,3.2-0.6,4.6-1.9l-1.4-1.5c-0.9,0.9-1.8,1.4-2.9,1.4
					c-2.6,0-3.2-2.4-3.1-4.4h8.1C282.1,21.6,282.1,21.3,282.1,21.1"/>
				<path id="Fill-6" class="st0" d="M288.1,15.3h-2.6L285.4,28h2.6L288.1,15.3z M285.4,13.1h2.8v-2.7h-2.8V13.1z"/>
				<path id="Fill-8" class="st0" d="M310,18.8c0-2-0.9-3.7-3.6-3.7c-1.6,0-3.2,1-4.2,2.2c-0.4-1.5-1.7-2.2-3.2-2.2
					c-2.5,0-4,2.1-4.1,2.3c0-0.1,0.1-1.4,0.1-2h-2.5L292.4,28h2.6v-8.6c0.8-0.9,1.9-2,3.1-2c1,0,1.8,0.6,1.8,1.8l-0.1,8.8h2.6v-8.6
					c0.8-0.9,1.9-2,3.1-2c1,0,1.7,0.6,1.7,1.8l-0.1,8.8h2.6L310,18.8z"/>
				<path id="Fill-10" class="st0" d="M320.1,21.7v3.1c-0.7,0.9-1.6,1.5-2.6,1.5c-1.2,0-1.9-0.7-1.9-1.8
					C315.6,22.8,316.9,22.3,320.1,21.7 M325.1,27.3l-0.7-1.4c-0.4,0.2-0.7,0.4-1,0.4c-0.7,0-0.8-0.3-0.8-1.4l0.1-6.4
					c0-2.2-1.5-3.4-3.5-3.4c-1.6,0-3.7,0.6-5.5,2.4l1.3,1.4c1.6-1.5,2.7-1.7,3.5-1.7c1,0,1.6,0.5,1.6,1.8v1.1
					c-4.3,0.7-7.1,1.6-7.1,4.5c0,2.4,1.4,3.7,3.7,3.7c1.4,0,2.6-0.8,3.6-1.9c0,1.3,0.9,1.9,2,1.9C323.1,28.3,324,28,325.1,27.3"/>
				<path id="Fill-12" class="st0" d="M334,15.2c-0.3-0.1-0.6-0.1-1-0.1c-1.7,0-2.7,1.4-3.4,2.7c0.1-1,0.1-2.5,0.1-2.5h-2.5
					L327.1,28h2.6l0.1-8c0.9-1.7,1.9-2.4,2.9-2.4c0.2,0,0.5,0.1,0.8,0.1L334,15.2z"/>
				<path id="Fill-14" class="st0" d="M130.1,10.6h-2.5l-0.2,10.9c-0.1,2.8-1.5,4.6-4.4,4.6c-2.7,0-4.1-1.5-4.1-4.2l0.1-11.3h-2.7
					l-0.1,11c0,4.5,2.3,6.7,6.7,6.7c4.3,0,7-2.2,7-6.7L130.1,10.6z"/>
				<path id="Fill-16" class="st0" d="M144,18.9c0-2.1-0.9-3.8-3.7-3.8c-1.8,0-3.1,1-4.3,2.2c0-0.3,0.1-1.1,0.1-2h-2.5L133.5,28h2.6
					l0.1-8.6c1-1.2,2.1-2,3.2-2c1.3,0,2,0.6,2,2l-0.1,8.6h2.6L144,18.9z"/>
				<path id="Fill-18" class="st0" d="M150.9,15.4h-2.6l-0.1,12.7h2.6L150.9,15.4z M148.2,13.2h2.8v-2.7h-2.8V13.2z"/>
				<path id="Fill-20" class="st0" d="M165.5,15.8l-2.3-0.7l-2.6,6.8c-0.8,2.1-1.2,3.4-1.2,3.4s-0.4-1.6-1.1-3.6l-2.2-6.6l-2.6,0.7
					l4.4,12.3h2.5L165.5,15.8z"/>
				<path id="Fill-22" class="st0" d="M175.6,20.1h-5.5c0.2-1.5,1.3-3.1,3-3.1C174.9,17,175.7,18.4,175.6,20.1 M178.1,21.1
					c0-3.4-1.2-6-4.8-6c-3.9,0-6.1,3.3-6.1,6.7c0,4.8,2.3,6.5,5.6,6.5c1.9,0,3.2-0.6,4.6-1.9L176,25c-0.9,0.9-1.8,1.4-2.9,1.4
					c-2.6,0-3.2-2.4-3.1-4.4h8.1C178,21.6,178.1,21.4,178.1,21.1"/>
				<path id="Fill-24" class="st0" d="M188.3,15.3c-0.3-0.1-0.6-0.1-1-0.1c-1.7,0-2.7,1.4-3.4,2.7c0.1-1,0.1-2.5,0.1-2.5h-2.5
					l-0.1,12.7h2.6l0.1-8c0.9-1.7,1.9-2.4,2.9-2.4c0.2,0,0.5,0.1,0.8,0.1L188.3,15.3z"/>
				<path id="Fill-26" class="st0" d="M198.5,16.1c-1-0.7-2.7-1-4.1-1c-2.4,0-4.7,1.3-4.7,3.7c0,4.5,6,3.2,6,5.8
					c0,1.2-1.3,1.8-2.3,1.8c-1.1,0-2.1-0.4-2.9-0.9l-1,1.7c1.2,0.8,2.7,1.1,4.1,1.1c2.2,0,4.8-1.4,4.8-3.9c0-4.5-6-3.2-6-5.8
					c0-1.3,1.2-1.6,2.4-1.6c0.9,0,2,0.4,2.7,0.8L198.5,16.1z"/>
				<path id="Fill-28" class="st0" d="M204.7,15.4h-2.6L202,28.1h2.6L204.7,15.4z M202,13.2h2.8v-2.7H202V13.2z"/>
				<path id="Fill-30" class="st0" d="M216.4,27.2l-0.9-1.5c-0.5,0.3-1.1,0.7-1.7,0.7c-0.8,0-1.5-0.4-1.5-1.7v-7.3h3.8v-2h-3.8v-4.5
					h-2.6v4.5h-2.1v2h2.1v7.2c0,2.7,1.2,3.7,3.6,3.7C214.3,28.3,215.4,27.8,216.4,27.2"/>
				<path id="Fill-32" class="st0" d="M224.6,21.8v3.1c-0.7,0.9-1.6,1.5-2.6,1.5c-1.2,0-1.9-0.7-1.9-1.8
					C220.1,22.9,221.4,22.3,224.6,21.8L224.6,21.8z M229.6,27.4l-0.7-1.4c-0.4,0.2-0.7,0.4-1,0.4c-0.7,0-0.8-0.3-0.8-1.4l0.1-6.4
					c0-2.2-1.5-3.4-3.5-3.4c-1.6,0-3.7,0.6-5.5,2.4l1.3,1.4c1.6-1.5,2.7-1.7,3.5-1.7c1,0,1.6,0.5,1.6,1.8v1.1
					c-4.3,0.7-7.1,1.6-7.1,4.5c0,2.4,1.4,3.7,3.7,3.7c1.4,0,2.6-0.8,3.6-1.9c0,1.3,0.9,1.9,2,1.9C227.6,28.3,228.5,28,229.6,27.4
					L229.6,27.4z M219.5,13.2h2.5v-2.6h-2.5V13.2z M223.8,13.2h2.5v-2.6h-2.5V13.2z"/>
				<path id="Fill-34" class="st0" d="M238.9,27.2l-0.9-1.5c-0.5,0.3-1.1,0.7-1.7,0.7c-0.8,0-1.5-0.4-1.5-1.7v-7.3h3.8v-2h-3.8v-4.5
					h-2.6v4.5h-2.1v2h2.1v7.2c0,2.7,1.2,3.7,3.6,3.7C236.9,28.3,238,27.8,238.9,27.2"/>
				<path id="Fill-36" class="st0" d="M17.9,23.1c0,1.9-1.6,3-3.7,3c-0.7,0-1.9,0-1.9,0v-5.9H14C17,20.1,17.9,21.1,17.9,23.1
					 M17.7,15.1c0,1.8-1.2,3-3.8,3h-1.6v-5.5c0,0,0.8-0.1,1.8-0.1C15.3,12.5,17.7,12.5,17.7,15.1 M20.8,23.1c0-2.2-1.3-3.8-3.4-4.2
					c0.9-0.4,3.2-1,3.2-4.1c0-4.1-3.7-4.4-6.3-4.4c-1,0-4.6,0.1-4.6,0.1L9.6,28c0,0,3.3,0.1,4.4,0.1C17.6,28.1,20.8,26.7,20.8,23.1"
					/>
				<path id="Fill-38" class="st0" d="M30.6,21.7v3.1c-0.7,0.9-1.6,1.5-2.6,1.5c-1.2,0-1.9-0.7-1.9-1.8
					C26.1,22.9,27.5,22.3,30.6,21.7 M35.7,27.3L34.9,26c-0.4,0.3-0.7,0.4-1,0.4c-0.7,0-0.8-0.3-0.8-1.4l0.1-6.4
					c0-2.2-1.5-3.4-3.5-3.4c-1.6,0-3.7,0.6-5.5,2.4l1.3,1.4c1.6-1.5,2.7-1.7,3.5-1.7c1,0,1.6,0.5,1.6,1.8v1.1
					c-4.3,0.7-7.1,1.6-7.1,4.5c0,2.4,1.4,3.7,3.7,3.7c1.4,0,2.6-0.8,3.6-1.9c0.1,1.3,0.9,1.9,2,1.9C33.6,28.3,34.5,28,35.7,27.3"/>
				<path id="Fill-40" class="st0" d="M48.1,15.4h-2.6L45.4,24c-1,1.2-2.1,2-3.2,2c-1.3,0-2-0.6-2-2l0.1-8.6h-2.6l-0.1,9.1
					c0,2.1,0.9,3.8,3.7,3.8c1.8,0,3.1-1,4.3-2.3c0,0.3,0,1.1-0.1,2H48L48.1,15.4z"/>
				<path id="Fill-42" class="st0" d="M62.8,18.9c0-2.4-1.1-3.9-3.6-3.9c-1.6,0-3.3,1-4.3,2.2c0.2-2.7,0.1-5.5,0.2-8.2h-2.6l-0.2,19
					H55v-8.6c0.8-0.9,2-2,3.3-2c1.2,0,1.9,0.6,1.9,1.9L60.1,28h2.6L62.8,18.9z"/>
				<path id="Fill-44" class="st0" d="M72.9,21.7v3.1c-0.7,0.9-1.6,1.5-2.6,1.5c-1.2,0-1.9-0.7-1.9-1.8
					C68.4,22.9,69.7,22.3,72.9,21.7 M77.9,27.3L77.2,26c-0.4,0.3-0.7,0.4-1,0.4c-0.7,0-0.8-0.3-0.8-1.4l0.1-6.4
					c0-2.2-1.5-3.4-3.5-3.4c-1.6,0-3.7,0.6-5.5,2.4l1.3,1.4c1.6-1.5,2.7-1.7,3.5-1.7c1,0,1.6,0.5,1.6,1.8v1.1
					c-4.3,0.7-7.1,1.6-7.1,4.5c0,2.4,1.4,3.7,3.7,3.7c1.4,0,2.6-0.8,3.6-1.9c0.1,1.3,0.9,1.9,2,1.9C75.9,28.3,76.8,28,77.9,27.3"/>
				<path id="Fill-46" class="st0" d="M90.3,15.4h-2.6V24c-1,1.2-2.1,2-3.2,2c-1.3,0-2-0.6-2-2l0.1-8.6H80l-0.1,9.1
					c0,2.1,0.9,3.8,3.7,3.8c1.8,0,3.1-1,4.3-2.3c0,0.3,0,1.1-0.1,2h2.5V15.4z"/>
				<path id="Fill-48" class="st0" d="M102.6,16.1c-1-0.7-2.7-1-4.1-1c-2.4,0-4.7,1.3-4.7,3.7c0,4.5,6,3.2,6,5.8
					c0,1.2-1.3,1.8-2.3,1.8c-1.1,0-2.1-0.4-2.9-0.9l-1,1.7c1.2,0.8,2.7,1.1,4.1,1.1c2.2,0,4.8-1.4,4.8-3.9c0-4.5-6-3.2-6-5.8
					c0-1.3,1.2-1.6,2.4-1.6c0.9,0,2,0.4,2.7,0.8L102.6,16.1z"/>
				<g id="Clip-51">
				</g>
				<polygon id="Fill-50" class="st0" points="105.3,22.5 112.6,22.5 112.6,20.4 105.3,20.4 				"/>
			</g>
		</g>
	</g>
</g>
</svg>
