<?xml version="1.0" encoding="UTF-8" standalone="no"?>
<svg width="343px" height="40px" viewBox="0 0 343 40" version="1.1" xmlns="http://www.w3.org/2000/svg" xmlns:xlink="http://www.w3.org/1999/xlink">
    <!-- Generator: Sketch 40.3 (33839) - http://www.bohemiancoding.com/sketch -->
    <title>Page 1</title>
    <desc>Created with Sketch.</desc>
    <defs>
        <polygon id="path-1" points="0 40 343 40 343 0 0 0"></polygon>
    </defs>
    <g id="Page-1" stroke="none" stroke-width="1" fill="none" fill-rule="evenodd">
        <g id="Home">
            <g id="Page-1">
                <polygon id="Fill-1" fill="#62BB46" points="0 40 343 40 343 0 0 0"></polygon>
                <g id="Group-52">
                    <path d="M270.5526,10.8274 L268.1156,10.2754 L264.4216,22.1364 C263.7926,24.1204 263.6416,25.5064 263.6416,25.5064 C263.6416,25.5064 263.3916,23.8464 262.7886,21.9624 L259.1446,10.5504 L256.2286,10.5504 L252.7606,22.0604 C252.3586,23.3944 252.0046,25.4794 252.0046,25.4794 C252.0046,25.4794 251.7786,23.9464 251.2006,22.0374 L247.6566,10.2754 L245.0176,10.9534 L250.4726,27.9944 L253.3626,27.9944 L256.9066,16.1054 C257.2576,14.8974 257.5336,13.1144 257.5336,13.1144 C257.5336,13.1144 257.7856,14.8974 258.1376,15.9804 L261.9316,27.9944 L264.8476,27.9944 L270.5526,10.8274 L270.5526,10.8274 Z" id="Fill-2" fill="#FFFFFF"></path>
                    <path d="M279.6573,19.9748 L274.1793,19.9998 C274.4053,18.5158 275.5113,16.8828 277.1433,16.8828 C278.9783,16.8828 279.7583,18.3428 279.6573,19.9748 M282.1443,21.0558 C282.1443,17.6628 280.9383,15.0498 277.3453,15.0498 C273.4483,15.0498 271.2623,18.3428 271.2623,21.7618 C271.2623,26.5878 273.5753,28.2698 276.8173,28.2698 C278.7283,28.2698 280.0093,27.6438 281.4663,26.3608 L280.0833,24.8778 C279.1783,25.7328 278.2743,26.2328 277.1423,26.2328 C274.5533,26.2328 273.9513,23.8458 274.0013,21.8098 L282.1193,21.7838 C282.1203,21.5588 282.1443,21.2828 282.1443,21.0558" id="Fill-4" fill="#FFFFFF"></path>
                    <path d="M288.0993,15.3238 L285.5093,15.3238 L285.4093,27.9928 L287.9983,27.9928 L288.0993,15.3238 Z M285.4343,13.1388 L288.2243,13.1388 L288.2243,10.4488 L285.4343,10.4488 L285.4343,13.1388 Z" id="Fill-6" fill="#FFFFFF"></path>
                    <path d="M310.0091,18.769 C310.0341,16.809 309.1281,15.048 306.4141,15.048 C304.8061,15.048 303.2471,16.053 302.2421,17.285 C301.8651,15.778 300.5851,15.048 299.0511,15.048 C296.5631,15.048 295.0801,17.185 294.9291,17.334 C294.9291,17.26 295.0301,15.927 295.0301,15.323 L292.5161,15.323 L292.4411,27.992 L295.0541,27.992 L295.1041,19.345 C295.8841,18.414 296.9901,17.385 298.1691,17.385 C299.2011,17.385 299.9291,18.013 299.9291,19.168 L299.8781,27.992 L302.4941,27.992 L302.5441,19.396 C303.3241,18.466 304.4551,17.385 305.6361,17.385 C306.6661,17.385 307.3701,18.013 307.3701,19.168 L307.3191,27.992 L309.9341,27.992 L310.0091,18.769 Z" id="Fill-8" fill="#FFFFFF"></path>
                    <path d="M320.0932,21.7087 L320.0682,24.8517 C319.3652,25.7307 318.4352,26.3597 317.5042,26.3597 C316.3232,26.3597 315.5952,25.7047 315.5952,24.5477 C315.5972,22.8417 316.9032,22.2617 320.0932,21.7087 M325.1202,27.2887 L324.3932,25.9337 C323.9662,26.1837 323.7132,26.3097 323.4112,26.3097 C322.7342,26.3097 322.6082,25.9827 322.6332,24.8777 L322.7102,18.4677 C322.7352,16.2547 321.2262,15.0487 319.2392,15.0487 C317.6572,15.0487 315.5212,15.6517 313.7612,17.4107 L315.0432,18.8427 C316.6282,17.3867 317.7082,17.1097 318.5142,17.1097 C319.5182,17.1097 320.1222,17.5887 320.1222,18.9437 L320.1222,20.0757 C315.8492,20.8047 313.0342,21.7087 313.0342,24.5997 C313.0342,26.9617 314.3902,28.2687 316.7522,28.2687 C318.1622,28.2687 319.3932,27.4897 320.3232,26.3847 C320.3722,27.6677 321.2512,28.2687 322.3592,28.2687 C323.0842,28.2687 323.9902,27.9667 325.1202,27.2887" id="Fill-10" fill="#FFFFFF"></path>
                    <path d="M334.0174,15.1993 C333.7154,15.1013 333.3884,15.0493 333.0384,15.0493 C331.3534,15.0493 330.3734,16.4073 329.5954,17.7903 C329.6724,16.8353 329.6724,15.3253 329.6724,15.3253 L327.1824,15.3253 L327.0814,27.9943 L329.6974,27.9943 L329.7734,19.9523 C330.6264,18.2673 331.7064,17.5143 332.7134,17.5143 C332.9634,17.5143 333.2414,17.5653 333.4684,17.6143 L334.0174,15.1993 Z" id="Fill-12" fill="#FFFFFF"></path>
                    <path d="M130.1059,10.6281 L127.6179,10.6281 L127.4669,21.5611 C127.4159,24.3751 125.9589,26.1361 123.0679,26.1361 C120.3539,26.1361 118.9219,24.6291 118.9469,21.9131 L119.0219,10.6281 L116.3589,10.6281 L116.2819,21.6111 C116.2569,26.1091 118.5459,28.3461 122.9679,28.3461 C127.2909,28.3461 129.9299,26.1091 129.9799,21.6611 L130.1059,10.6281 Z" id="Fill-14" fill="#FFFFFF"></path>
                    <path d="M143.9553,18.923 C143.9803,16.787 143.0503,15.127 140.2613,15.127 C138.5023,15.127 137.1443,16.083 135.9633,17.364 C135.9883,17.087 136.0133,16.257 136.0393,15.402 L133.5503,15.402 L133.4503,28.07 L136.0643,28.07 L136.1393,19.423 C137.0953,18.243 138.2003,17.438 139.3323,17.438 C140.6643,17.438 141.3673,17.99 141.3423,19.449 L141.2673,28.07 L143.8813,28.07 L143.9553,18.923 Z" id="Fill-16" fill="#FFFFFF"></path>
                    <path d="M150.8721,15.4036 L148.2831,15.4036 L148.1821,28.0716 L150.7711,28.0716 L150.8721,15.4036 Z M148.2081,13.2166 L150.9981,13.2166 L150.9981,10.5286 L148.2081,10.5286 L148.2081,13.2166 Z" id="Fill-18" fill="#FFFFFF"></path>
                    <path d="M165.5193,15.8073 L163.1823,15.1283 L160.5933,21.9403 C159.7883,24.0503 159.4363,25.3083 159.4363,25.3083 C159.4363,25.3083 159.0593,23.7233 158.3563,21.6643 L156.1193,15.1033 L153.5553,15.8083 L158.0043,28.0743 L160.5173,28.0743 L165.5193,15.8073 Z" id="Fill-20" fill="#FFFFFF"></path>
                    <path d="M175.5732,20.0534 L170.0952,20.0794 C170.3212,18.5944 171.4272,16.9624 173.0602,16.9624 C174.8942,16.9624 175.6742,18.4204 175.5732,20.0534 M178.0632,21.1344 C178.0632,17.7414 176.8542,15.1284 173.2622,15.1284 C169.3652,15.1284 167.1792,18.4204 167.1792,21.8374 C167.1792,26.6664 169.4912,28.3484 172.7342,28.3484 C174.6452,28.3484 175.9252,27.7224 177.3822,26.4394 L176.0012,24.9564 C175.0952,25.8114 174.1912,26.3114 173.0602,26.3114 C170.4712,26.3114 169.8682,23.9244 169.9192,21.8884 L178.0352,21.8624 C178.0352,21.6374 178.0632,21.3614 178.0632,21.1344" id="Fill-22" fill="#FFFFFF"></path>
                    <path d="M188.2614,15.2779 C187.9624,15.1789 187.6324,15.1279 187.2824,15.1279 C185.5994,15.1279 184.6174,16.4859 183.8394,17.8679 C183.9164,16.9139 183.9164,15.4049 183.9164,15.4049 L181.4274,15.4049 L181.3274,28.0729 L183.9394,28.0729 L184.0164,20.0309 C184.8714,18.3459 185.9514,17.5929 186.9564,17.5929 C187.2064,17.5929 187.4844,17.6429 187.7104,17.6929 L188.2614,15.2779 Z" id="Fill-24" fill="#FFFFFF"></path>
                    <path d="M198.5191,16.1316 C197.4881,15.4536 195.8551,15.1266 194.4481,15.1266 C192.0851,15.1266 189.7221,16.3826 189.7221,18.8466 C189.7221,23.3956 195.7261,22.0136 195.7261,24.6776 C195.7261,25.8836 194.4461,26.4636 193.4401,26.4636 C192.3351,26.4636 191.3801,26.1106 190.5011,25.5846 L189.5211,27.2936 C190.7271,28.0476 192.1831,28.3466 193.6671,28.3466 C195.9041,28.3466 198.4441,26.9396 198.4441,24.4276 C198.4441,19.9526 192.4121,21.2106 192.4121,18.6216 C192.4121,17.3656 193.6181,17.0126 194.7751,17.0126 C195.6791,17.0126 196.7841,17.3656 197.5131,17.7676 L198.5191,16.1316 Z" id="Fill-26" fill="#FFFFFF"></path>
                    <path d="M204.674,15.4036 L202.085,15.4036 L201.984,28.0716 L204.573,28.0716 L204.674,15.4036 Z M202.011,13.2166 L204.801,13.2166 L204.801,10.5286 L202.011,10.5286 L202.011,13.2166 Z" id="Fill-28" fill="#FFFFFF"></path>
                    <path d="M216.3801,27.1928 L215.4501,25.7088 C214.9981,26.0108 214.3441,26.3628 213.7431,26.3628 C212.9371,26.3628 212.2081,25.9848 212.2081,24.6538 L212.2331,17.3648 L216.0301,17.3648 L216.0301,15.4038 L212.2611,15.4038 L212.2861,10.9298 L209.6731,10.9298 L209.6471,15.4038 L207.5621,15.4038 L207.5621,17.3648 L209.6231,17.3648 L209.5741,24.6028 C209.5471,27.3438 210.7281,28.3488 213.1911,28.3488 C214.3201,28.3468 215.4011,27.8188 216.3801,27.1928" id="Fill-30" fill="#FFFFFF"></path>
                    <path d="M224.5983,21.7873 L224.5723,24.9303 C223.8693,25.8093 222.9383,26.4383 222.0103,26.4383 C220.8303,26.4383 220.0993,25.7833 220.0993,24.6293 C220.0983,22.9203 221.4053,22.3403 224.5983,21.7873 L224.5983,21.7873 Z M229.6253,27.3673 L228.8963,26.0123 C228.4683,26.2623 228.2153,26.3883 227.9163,26.3883 C227.2363,26.3883 227.1103,26.0613 227.1353,24.9563 L227.2123,18.5453 C227.2373,16.3343 225.7283,15.1273 223.7443,15.1273 C222.1603,15.1273 220.0243,15.7293 218.2663,17.4893 L219.5483,18.9233 C221.1303,17.4653 222.2103,17.1893 223.0163,17.1893 C224.0213,17.1893 224.6243,17.6653 224.6243,19.0223 L224.6243,20.1543 C220.3523,20.8833 217.5373,21.7873 217.5373,24.6783 C217.5373,27.0403 218.8923,28.3473 221.2553,28.3473 C222.6643,28.3473 223.8953,27.5683 224.8263,26.4633 C224.8753,27.7463 225.7563,28.3473 226.8613,28.3473 C227.5893,28.3473 228.4923,28.0473 229.6253,27.3673 L229.6253,27.3673 Z M219.5183,13.2173 L222.0583,13.2173 L222.0583,10.6283 L219.5183,10.6283 L219.5183,13.2173 Z M223.8163,13.2173 L226.3563,13.2173 L226.3563,10.6283 L223.8163,10.6283 L223.8163,13.2173 Z" id="Fill-32" fill="#FFFFFF"></path>
                    <path d="M238.9475,27.1928 L238.0195,25.7088 C237.5655,26.0108 236.9115,26.3628 236.3105,26.3628 C235.5045,26.3628 234.7755,25.9848 234.7755,24.6538 L234.8015,17.3648 L238.5965,17.3648 L238.5965,15.4038 L234.8275,15.4038 L234.8525,10.9298 L232.2395,10.9298 L232.2125,15.4038 L230.1285,15.4038 L230.1285,17.3648 L232.1895,17.3648 L232.1405,24.6028 C232.1145,27.3438 233.2965,28.3488 235.7575,28.3488 C236.8865,28.3468 237.9665,27.8188 238.9475,27.1928" id="Fill-34" fill="#FFFFFF"></path>
                    <path d="M17.8941,23.0667 C17.8941,25.0017 16.2861,26.0327 14.1481,26.0327 C13.4441,26.0327 12.2891,26.0067 12.2891,26.0067 L12.3141,20.1247 L14.0481,20.1247 C16.9891,20.1257 17.8941,21.0547 17.8941,23.0667 M17.7431,15.0737 C17.7431,16.8327 16.5121,18.0637 13.9741,18.0637 L12.3401,18.0637 L12.3651,12.5357 C12.3651,12.5357 13.1201,12.4857 14.1751,12.4857 C15.3301,12.4857 17.7431,12.4857 17.7431,15.0737 M20.7601,23.1167 C20.7601,20.9547 19.5021,19.2967 17.3661,18.9447 C18.2961,18.5677 20.5841,17.9157 20.5841,14.8737 C20.5841,10.8027 16.9151,10.4267 14.3261,10.4267 C13.3201,10.4267 9.7261,10.5757 9.7261,10.5757 L9.5751,28.0197 C9.5751,28.0197 12.8671,28.1187 14.0241,28.1187 C17.5931,28.1187 20.7601,26.7107 20.7601,23.1167" id="Fill-36" fill="#FFFFFF"></path>
                    <path d="M30.6426,21.7339 L30.6176,24.8759 C29.9116,25.7549 28.9826,26.3839 28.0536,26.3839 C26.8726,26.3839 26.1426,25.7299 26.1426,24.5739 C26.1436,22.8669 27.4516,22.2879 30.6426,21.7339 M35.6696,27.3149 L34.9406,25.9579 C34.5126,26.2089 34.2626,26.3349 33.9606,26.3349 C33.2816,26.3349 33.1556,26.0079 33.1816,24.9009 L33.2576,18.4909 C33.2826,16.2799 31.7746,15.0739 29.7886,15.0739 C28.2056,15.0739 26.0696,15.6759 24.3106,17.4359 L25.5926,18.8699 C27.1756,17.4119 28.2576,17.1349 29.0606,17.1349 C30.0666,17.1349 30.6706,17.6139 30.6706,18.9699 L30.6706,20.1009 C26.3976,20.8299 23.5816,21.7339 23.5816,24.6249 C23.5816,26.9889 24.9396,28.2949 27.3016,28.2949 C28.7086,28.2949 29.9406,27.5149 30.8706,26.4099 C30.9206,27.6929 31.8006,28.2949 32.9056,28.2949 C33.6336,28.2949 34.5376,27.9929 35.6696,27.3149" id="Fill-38" fill="#FFFFFF"></path>
                    <path d="M48.0849,15.3502 L45.4459,15.3502 L45.3949,23.9712 C44.4399,25.1512 43.3329,25.9562 42.2029,25.9562 C40.8699,25.9562 40.1669,25.4032 40.1919,23.9442 L40.2929,15.3492 L37.6529,15.3492 L37.5769,24.4722 C37.5509,26.6092 38.4819,28.2932 41.2709,28.2932 C43.0299,28.2932 44.3879,27.3142 45.5689,26.0312 C45.5439,26.3082 45.5189,27.1622 45.4939,28.0172 L47.9819,28.0172 L48.0849,15.3502 Z" id="Fill-40" fill="#FFFFFF"></path>
                    <path d="M62.8202,18.945 C62.8452,16.508 61.7132,15.075 59.2002,15.075 C57.6172,15.075 55.9322,16.105 54.9292,17.261 C55.1292,14.547 55.0542,11.807 55.0802,9.092 L52.4392,9.092 L52.3132,28.019 L54.9532,28.019 L55.0032,19.399 C55.8082,18.492 56.9882,17.414 58.2712,17.414 C59.5022,17.414 60.1562,18.016 60.1562,19.273 L60.1052,28.021 L62.7452,28.021 L62.8202,18.945 Z" id="Fill-42" fill="#FFFFFF"></path>
                    <path d="M72.9031,21.7339 L72.8781,24.8759 C72.1721,25.7549 71.2441,26.3839 70.3141,26.3839 C69.1331,26.3839 68.4031,25.7299 68.4031,24.5739 C68.4041,22.8669 69.7121,22.2879 72.9031,21.7339 M77.9301,27.3149 L77.2011,25.9579 C76.7731,26.2089 76.5231,26.3349 76.2211,26.3349 C75.5431,26.3349 75.4151,26.0079 75.4431,24.9009 L75.5201,18.4909 C75.5451,16.2799 74.0361,15.0739 72.0491,15.0739 C70.4661,15.0739 68.3301,15.6759 66.5711,17.4359 L67.8531,18.8699 C69.4381,17.4119 70.5181,17.1349 71.3211,17.1349 C72.3281,17.1349 72.9291,17.6139 72.9291,18.9699 L72.9291,20.1009 C68.6581,20.8299 65.8431,21.7339 65.8431,24.6249 C65.8431,26.9889 67.2001,28.2949 69.5621,28.2949 C70.9691,28.2949 72.2031,27.5149 73.1311,26.4099 C73.1821,27.6929 74.0611,28.2949 75.1661,28.2949 C75.8941,28.2949 76.7981,27.9929 77.9301,27.3149" id="Fill-44" fill="#FFFFFF"></path>
                    <path d="M90.3466,15.3502 L87.7066,15.3502 L87.6546,23.9712 C86.7016,25.1512 85.5936,25.9562 84.4646,25.9562 C83.1306,25.9562 82.4286,25.4032 82.4526,23.9442 L82.5536,15.3492 L79.9126,15.3492 L79.8386,24.4722 C79.8126,26.6092 80.7426,28.2932 83.5326,28.2932 C85.2906,28.2932 86.6496,27.3142 87.8306,26.0312 C87.8056,26.3082 87.7816,27.1622 87.7536,28.0172 L90.2436,28.0172 L90.3466,15.3502 Z" id="Fill-46" fill="#FFFFFF"></path>
                    <path d="M102.5671,16.0795 C101.5361,15.4005 99.9031,15.0735 98.4961,15.0735 C96.1331,15.0735 93.7701,16.3305 93.7701,18.7945 C93.7701,23.3425 99.7771,21.9615 99.7771,24.6245 C99.7771,25.8305 98.4941,26.4105 97.4911,26.4105 C96.3831,26.4105 95.4301,26.0585 94.5491,25.5295 L93.5691,27.2385 C94.7751,27.9935 96.2341,28.2945 97.7171,28.2945 C99.9541,28.2945 102.4921,26.8875 102.4921,24.3735 C102.4921,19.8995 96.4601,21.1565 96.4601,18.5675 C96.4601,17.3115 97.6661,16.9595 98.8221,16.9595 C99.7291,16.9595 100.8341,17.3115 101.5641,17.7145 L102.5671,16.0795 Z" id="Fill-48" fill="#FFFFFF"></path>
                    <mask id="mask-2" fill="white">
                        <use xlink:href="#path-1"></use>
                    </mask>
                    <g id="Clip-51"></g>
                    <polygon id="Fill-50" fill="#FFFFFF" mask="url(#mask-2)" points="105.28 22.538 112.569 22.538 112.569 20.427 105.28 20.427"></polygon>
                </g>
            </g>
        </g>
    </g>
</svg>